# xmcd
#
# Track frame offsets: 
#        150
#        31895
#        61165
#        83783
#        104925
#        130622
#        152373
#        175847
#        202131
#        218557
#        240632
#        260896
#        292167
#        312560
#        334503
#
# Disc length: 4788 seconds
#
# Revision: 2
# Processed by: cddbd v1.5.2PL0 Copyright (c) Steve Scherf et al.
# Submitted via: ExactAudioCopy v1.3
#
DISCID=dd12b20f
DTITLE=Various Artist - Philadelphia International Records: The 40th 
DTITLE=Anniversary Box Set [CD9)
DYEAR=2012
DGENRE=Soul
TTITLE0=McFadden and Whitehead - Ain't No Stoppin' Us Now
TTITLE1=Jean Carn - Was That All It Was
TTITLE2=Billy Paul - Bring The Family Back
TTITLE3=The Jones Girls - Nights Over Egypt
TTITLE4=The O'Jays - Put Our Heads Together
TTITLE5=The Jones Girls - Keep It Comin'
TTITLE6=McFadden and Whitehead - I Heard It In A Love Song
TTITLE7=Patti LaBelle - The Spirit's In It
TTITLE8=Frantique - Strut Your Funky Stuff
TTITLE9=The Stylistics - What's Your Name
TTITLE10=The Jones Girls - Dance Turned To A Romance
TTITLE11=Archie Bell and The Drells - Strategy
TTITLE12=Dee Dee Sharp Gamble - I Love You Anyway
TTITLE13=Jean Carn - Bet Your Lucky Star
TTITLE14=Lou Rawls - Let Me Be Good To You
EXTD=
EXTT0=
EXTT1=
EXTT2=
EXTT3=
EXTT4=
EXTT5=
EXTT6=
EXTT7=
EXTT8=
EXTT9=
EXTT10=
EXTT11=
EXTT12=
EXTT13=
EXTT14=
PLAYORDER=
